<?xml version="1.0" encoding="iso-8859-1"?>
<!DOCTYPE svg PUBLIC "-//W3C//DTD SVG 1.1//EN" "http://www.w3.org/Graphics/SVG/1.1/DTD/svg11.dtd">
<svg version="1.1" id="Capa_1" xmlns="http://www.w3.org/2000/svg" xmlns:xlink="http://www.w3.org/1999/xlink" x="0px" y="0px"
	 width="245.226px" height="245.226px" viewBox="0 0 245.226 245.226" style="enable-background:new 0 0 245.226 245.226;"
	 xml:space="preserve">
	<path d="M228.684,224.963c0,11.189-13.157,20.263-29.394,20.263h-84.737c-12.679,0-23.392-5.562-27.521-13.312h28.531
		c15.693,0,27.993-9.161,27.993-20.823c0-7.229-4.835-13.73-12.696-17.49c0.048-0.496,0.071-0.993,0.071-1.489
		c0-1.809-0.296-3.559-0.798-5.255c3.942,0.048,7.666,0.704,11.012,1.845c5.958-8.684,18.66-14.694,33.502-14.694
		c20.54,0,37.185,11.473,37.185,25.623c0,2.294-0.579,4.469-1.389,6.585C221.136,209.24,228.684,216.487,228.684,224.963z
		 M97.769,48.167c-5.671,0.464-11.336,1.058-16.99,1.755C90.996,32.863,102.291,16.189,114.65,0
		c12.634,14.387,24.338,29.293,35.089,44.62c3.896-4.776,7.873-9.493,11.958-14.159c9.54,13.878,18.306,28.067,26.326,42.489
		c-3.422-0.467-6.874-0.896-10.309-1.294c-0.721,7.958-1.424,15.917-2.14,23.87c2.968,0.352,5.929,0.709,8.891,1.114
		c-0.904,8.34-1.81,16.657-2.714,24.985c1.059,0.148,2.11,0.301,3.157,0.449c1.116-9.631,2.228-19.254,3.345-28.883
		c-2.523-0.364-5.042-0.709-7.565-1.032c7.59-8.733,15.557-17.259,23.897-25.528c5.65,10.775,10.888,21.657,15.704,32.612
		c-3.238-0.756-6.478-1.454-9.717-2.131c-1.566,9.552-3.115,19.101-4.67,28.644c2.436,0.509,4.877,1.04,7.312,1.591
		c-2.867,15.876-5.723,31.758-8.583,47.635c-7.997-5.249-18.43-8.541-29.962-8.541c-3.706,0-7.323,0.33-10.811,0.951
		c-1.897-13.595-13.866-24.808-29.364-24.885c-15.832-0.105-28.053,11.479-29.664,25.464c-2.488-0.432-5.042-0.709-7.705-0.709
		c-2.813,0-5.556,0.26-8.201,0.745c-0.473-4.387-0.94-8.771-1.404-13.158c-6.827,0.922-13.642,2.051-20.428,3.393
		c0.987,6.337,1.983,12.686,2.976,19.039c-0.071,0.071-0.18,0.118-0.26,0.195c-2.087-0.402-4.218-0.627-6.354-0.627
		c-1.507,0-2.967,0.13-4.389,0.296c-2.305-12.495-4.613-25.015-6.918-37.51c4.395-1.028,8.807-1.944,13.219-2.813
		c-0.919-6.041-1.847-12.105-2.772-18.144c-3.455,0.671-6.901,1.387-10.338,2.149c5.11-12.07,10.725-24.048,16.863-35.87
		c8.068,8.547,15.767,17.342,23.073,26.354c-0.461-5.314-0.928-10.622-1.386-15.936c3.339-0.37,6.682-0.691,10.016-0.97
		C99.791,78.991,98.78,63.588,97.769,48.167z M94.004,132.489c-0.532-6.111-1.058-12.211-1.599-18.314
		c-2.849,0.322-5.701,0.659-8.544,1.041c0.647,6.097,1.282,12.197,1.93,18.285C88.54,133.122,91.273,132.803,94.004,132.489z
		 M176.019,160.3c8.341,1.105,16.663,2.53,24.943,4.268c1.324-7.938,2.654-15.888,3.973-23.832
		c-8.76-1.845-17.555-3.346-26.392-4.511C177.697,144.246,176.858,152.273,176.019,160.3z M157.536,85.517
		c4.161,0.272,8.316,0.618,12.472,1.011c0.26-3.407,0.52-6.815,0.786-10.217c-4.238-0.405-8.482-0.745-12.738-1.017
		C157.885,78.695,157.713,82.115,157.536,85.517z M151.276,126.213c6.597,0.372,13.175,0.892,19.754,1.602
		c0.502-5.876,1.011-11.733,1.513-17.62c-6.82-0.739-13.665-1.292-20.521-1.655C151.767,114.429,151.519,120.331,151.276,126.213z
		 M134.396,64.478c4.32-5.885,8.795-11.718,13.417-17.47c-4.438-0.156-8.901-0.254-13.347-0.277
		C134.437,52.638,134.425,58.563,134.396,64.478z M134.295,93.106c2.601,0.012,5.207,0.053,7.819,0.127
		c0.154-8.006,0.319-16.016,0.479-24.01c-2.737-0.074-5.468-0.115-8.204-0.127C134.348,77.097,134.318,85.103,134.295,93.106z
		 M122.943,114.66c0.083,4.043,0.162,8.071,0.254,12.125c4.495-0.117,8.999-0.142,13.503-0.1c0.036-4.037,0.083-8.074,0.118-12.117
		C132.185,114.509,127.557,114.544,122.943,114.66z M110.359,71.34c0.121,2.793,0.242,5.588,0.363,8.384
		c3.443-0.195,6.892-0.346,10.338-0.438c-0.068-2.801-0.127-5.597-0.195-8.387C117.36,71.003,113.858,71.142,110.359,71.34z
		 M137.575,211.079c0-6.343-5.656-11.763-13.672-14.038c0.612-1.584,1.041-3.216,1.041-4.93c0-10.592-12.466-19.187-27.84-19.187
		c-11.112,0-20.623,4.504-25.083,10.994c-2.616-0.875-5.503-1.407-8.588-1.407c-10.908,0-19.751,6.106-19.751,13.619
		c0,0.313,0.109,0.608,0.133,0.904c-8.051,2.252-13.734,7.689-13.734,14.044c0,8.382,9.854,15.173,22.015,15.173h63.455
		C127.722,226.252,137.575,219.461,137.575,211.079z M32.249,117.109C29.054,96.549,43.133,77.292,63.693,74.1
		c9.174-1.421,18.072,0.606,25.414,5.092c-8.721-11.325-23.182-17.68-38.308-15.333c-22.085,3.432-37.206,24.119-33.771,46.211
		c2.745,17.649,16.518,30.83,33.209,33.668C40.911,138.17,34.048,128.659,32.249,117.109z"/>
</svg>
